<svg height="496pt" viewBox="-111 0 496 496.00091" width="496pt" xmlns="http://www.w3.org/2000/svg"><path d="m237 192c0-5.523438-4.476562-10-10-10h-185c-5.523438 0-10 4.476562-10 10v227c0 5.523438 4.476562 10 10 10h185c5.523438 0 10-4.476562 10-10zm-185 10h165v207h-165zm0 0"/><path d="m263.574219 20c5.523437 0 10-4.476562 10-10s-4.476563-10-10-10h-184.960938c-22.144531.015625-41.925781 13.847656-49.539062 34.636719l-4.554688 12.492187c-1.695312 5.140625 1.007813 10.695313 6.097657 12.535156 5.089843 1.84375 10.71875-.699218 12.703124-5.734374l4.550782-12.457032c4.730468-12.898437 17.003906-21.472656 30.742187-21.472656h46.386719v50h-27.21875c-9.480469-.035156-18.585938 3.707031-25.296875 10.402344-6.714844 6.691406-10.488281 15.78125-10.484375 25.261718v9.363282c-34 .160156-62 27.800781-62 61.761718v309.355469c0 5.523438 4.902344 9.855469 10.425781 9.855469h248.476563c2.644531.035156 5.199218-.984375 7.09375-2.832031 1.894531-1.847657 2.976562-4.375 3.003906-7.023438v-309.144531h-.261719c-.109375-34.089844-27.648437-61.734375-61.738281-61.972656v-9.363282c.078125-9.445312-3.628906-18.53125-10.289062-25.230468-6.660157-6.699219-15.722657-10.457032-25.167969-10.433594h-26.542969v-50zm-14.574219 156.78125v299.21875h-229v-299.210938c0-23.03125 19.164062-41.789062 42.191406-41.789062h144.9375c23.078125.027344 41.796875 18.703125 41.871094 41.78125zm-62-71.117188v9.335938h-105v-9.335938c-.011719-4.175781 1.652344-8.183593 4.617188-11.128906 2.964843-2.941406 6.984374-4.574218 11.164062-4.535156h35.898438c.324218 0 .652343.050781.988281.050781.332031 0 .660156-.050781.984375-.050781h35.894531c4.144531-.027344 8.121094 1.621094 11.03125 4.570312 2.910156 2.953126 4.503906 6.953126 4.421875 11.09375zm0 0"/><path d="m198 278h-34v-33c0-5.523438-4.476562-10-10-10h-39c-5.523438 0-10 4.476562-10 10v33h-33c-5.523438 0-10 4.476562-10 10v39c0 5.523438 4.476562 10 10 10h33v34c0 5.523438 4.476562 10 10 10h39c5.523438 0 10-4.476562 10-10v-34h34c5.523438 0 10-4.476562 10-10v-39c0-5.523438-4.476562-10-10-10zm-10 39h-34c-5.523438 0-10 4.476562-10 10v34h-19v-34c0-5.523438-4.476562-10-10-10h-33v-19h33c5.523438 0 10-4.476562 10-10v-33h19v33c0 5.523438 4.476562 10 10 10h34zm0 0"/></svg>